<svg width="276" height="182" viewBox="0 0 276 182" fill="none" xmlns="http://www.w3.org/2000/svg">
<path d="M6 19.4378V145.996C6 162.564 19.4315 175.996 36 175.996H100M270 19.4378V145.996C270 162.564 256.569 175.996 240 175.996H171" stroke="black" stroke-width="12" stroke-linecap="round" stroke-linejoin="round"/>
<path fill-rule="evenodd" clip-rule="evenodd" d="M51.5382 0.232219C70.2094 -0.889231 76.7863 24.2883 70.3907 41.8658C57.3123 89.177 86.0984 116.182 106.648 126.422C117.844 130.847 137.334 135.439 155.933 126.766C166.004 122.069 176.861 113.595 183.824 99.6214C190.377 86.47 192.422 68.6034 187.464 58.1353C184.826 51.239 178.822 45.4151 171.424 41.7288C161.752 37.5992 151.509 40.4349 146.054 44.1305C144.212 45.3782 142.509 46.8845 141.145 48.6421C137.533 53.296 134.318 62.4406 140.248 69.6991C147.489 78.5605 152.99 76.6638 157.095 75.0154C159.694 73.6217 163.25 71.3107 163.241 64.7394C163.235 59.811 166.083 58.575 168.578 62.6786C173.457 70.7054 175.915 101.127 143.762 112.494C142.303 113.01 140.745 113.363 139.208 113.537C93.3833 118.741 77.9614 73.1072 86.0098 50.8801C88.973 39.9567 97.6299 25.5764 111.63 16.2575C116.006 13.3445 122.374 13.5821 127.166 15.7438C132.588 18.1899 138.029 17.8276 143.504 15.5028C164.894 6.42111 204.231 -5.47211 240.327 2.77601C243.374 3.47223 245.442 6.24367 245.442 9.36903V25.5773V152.02C245.442 156.466 241.363 159.771 236.998 158.929C213.955 154.485 170.876 148.593 146.18 168.145C144.835 169.209 143.193 169.856 141.478 169.856H134.93H128.382C126.668 169.856 125.023 169.21 123.685 168.138C99.2236 148.533 59.9463 152.92 36.4691 158.336C31.9375 159.382 27.4884 156.018 27.4884 151.367V25.5773V9.46687C27.4884 6.29551 29.6213 3.49778 32.7196 2.8207C39.0869 1.4292 45.379 0.602157 51.5382 0.232219Z" fill="black"/>
<path d="M150.151 58.7869C151.273 59.8134 153.916 61.2918 155.506 58.9935C157.096 56.6952 155.05 54.5963 153.828 53.8341" stroke="black" stroke-width="1.6946" stroke-linecap="round"/>
</svg>
